<?xml version="1.0" encoding="UTF-8" standalone="no"?>
<svg
   xmlns="http://www.w3.org/2000/svg"
   version="1.2"
   width="550"
   height="550">
  <g transform="translate(25,75)">
  <g>
    <path
       d="m 334.16613,152.62418 a 233.91629,233.05945 0 1 1 -467.83258,0 233.91629,233.05945 0 1 1 467.83258,0 z"
       transform="matrix(0.77048874,0,0,0.75335793,167.04434,87.876513)"
       style="fill:#000000;fill-opacity:1;fill-rule:nonzero;stroke:none;display:inline" />
  </g>
  <g transform="translate(0,-652.36218)">
    <path
       d="m 323.875,679.3125 c -9.9115,1.4e-4 -19.31939,1.85018 -27.875,5.65625 -0.0301,0.0134 -0.0637,0.0178 -0.0937,0.0312 -8.27392,3.61303 -15.48543,8.88164 -21.3125,15.59375 -0.0243,0.028 -0.0383,0.0657 -0.0625,0.0937 -5.77336,6.51837 -10.21931,14.22731 -13.34375,22.90625 a 9.9320444,9.9320444 0 0 0 -0.0625,0.1875 c -1.58183,4.65247 -2.70638,9.49413 -3.4375,14.53125 -1.24314,-1.57924 -2.53887,-3.12268 -3.9375,-4.5625 -6.2276,-6.41051 -13.80396,-11.33824 -22.34375,-14.71875 -8.67408,-3.43331 -18.24826,-5.09362 -28.5,-5.09375 -10.42278,1.3e-4 -19.79126,0.7959 -28.21875,2.46875 -0.0613,0.0113 -0.0951,0.02 -0.15625,0.0312 -6.96477,1.28144 -12.74345,2.49966 -17.78125,3.6875 a 9.9320444,9.9320444 0 0 0 -8.34375,-15.34375 l -22.75,0 a 9.9320444,9.9320444 0 0 0 -8.1875,4.3125 L 96.9375,739 76.59375,709.125 A 9.9320444,9.9320444 0 0 0 68.375,704.78125 l -24.15625,0 a 9.9320444,9.9320444 0 0 0 -8.15625,15.625 l 35.53125,51.03125 c -6.069799,8.22926 -12.154261,16.57684 -18.3125,25.5 a 9.9320444,9.9320444 0 0 0 0,0.0312 c -7.567202,11.0355 -14.169131,21.96966 -19.75,32.8125 A 9.9320444,9.9320444 0 0 0 42.375,844.25 l 22.09375,0 a 9.9320444,9.9320444 0 0 0 8.8125,-5.34375 c 1.570039,-2.9974 3.542559,-6.52108 5.9375,-10.5625 2.383454,-4.02211 4.916321,-8.11473 7.59375,-12.28125 0.01291,-0.0201 0.01834,-0.0424 0.03125,-0.0625 2.823461,-4.30773 5.737308,-8.51351 8.71875,-12.6875 a 9.9320444,9.9320444 0 0 0 0.09375,-0.15625 c 0.293686,-0.42585 0.551878,-0.76763 0.84375,-1.1875 0.275276,0.38333 0.535821,0.70641 0.8125,1.09375 2.98155,4.1743 5.90266,8.43545 8.75,12.78125 a 9.9320444,9.9320444 0 0 0 0.0937,0.125 c 2.81269,4.14514 5.41321,8.21307 7.75,12.15625 2.35264,3.97023 4.28275,7.50315 5.84375,10.625 a 9.9320444,9.9320444 0 0 0 8.875,5.5 l 19.03125,0 0,44.3125 a 9.9320444,9.9320444 0 0 0 9.9375,9.9375 L 179,898.5 a 9.9320444,9.9320444 0 0 0 9.9375,-9.9375 l 0,-32.8125 c 6.23635,1.95064 12.95293,2.9375 20.1875,2.9375 9.73876,0 18.82524,-1.75426 26.90625,-5.5 0.021,-0.01 0.0415,-0.0215 0.0625,-0.0312 7.99191,-3.64393 14.90984,-8.8982 20.4375,-15.53125 5.4893,-6.58729 9.52105,-14.39228 12.15625,-23.09375 l 0.0312,0 c 0.0191,-0.0596 0.0123,-0.1278 0.0312,-0.1875 1.35373,-4.26478 2.3816,-8.68429 3.0625,-13.25 0.69765,0.8773 1.34889,1.78704 2.09375,2.625 a 9.9320444,9.9320444 0 0 0 0.125,0.125 c 6.03267,6.58114 13.43765,11.70421 21.84375,15.28125 a 9.9320444,9.9320444 0 0 0 0.0625,0.0312 c 8.77944,3.65813 18.60583,5.375 29.3125,5.375 3.39382,0 6.85238,-0.27351 10.34375,-0.75 0.16865,-0.023 0.33117,-0.007 0.5,-0.0312 l 0,-0.0312 c 3.34661,-0.32005 6.53025,-0.78046 9.59375,-1.40625 l 0,0.0312 c 0.1492,-0.0236 0.25829,-0.0697 0.40625,-0.0937 0.0217,-0.004 0.0408,0.004 0.0625,0 3.02242,-0.49283 5.81808,-1.07652 8.34375,-1.75 a 9.9320444,9.9320444 0 0 0 0.5625,-0.1875 c 2.67502,-0.89171 4.99912,-1.75739 7.4375,-3.28125 A 9.9320444,9.9320444 0 0 0 364.875,815 c 5.58274,5.46418 12.12379,9.86121 19.5,13 a 9.9320444,9.9320444 0 0 0 0.0625,0.0312 c 8.76654,3.65275 18.61566,5.40625 29.34375,5.40625 3.45822,0 6.90674,-0.30912 10.34375,-0.78125 0.16598,-0.0228 0.33408,-0.008 0.5,-0.0312 l 0,-0.0312 c 3.34824,-0.32061 6.51322,-0.78294 9.5625,-1.40625 l 0,0.0312 c 0.15579,-0.0246 0.28271,-0.0688 0.4375,-0.0937 0.0106,-0.002 0.0207,0.002 0.0312,0 2.95664,-0.47794 5.75161,-1.01921 8.375,-1.71875 a 9.9320444,9.9320444 0 0 0 0.5625,-0.1875 c 2.77743,-0.92584 5.135,-1.89308 7.40625,-3.3125 a 9.9320444,9.9320444 0 0 0 4.53125,-10.03125 l -3,-17.9375 a 9.9320444,9.9320444 0 0 0 -14,-7.375 c -1.55441,0.73147 -4.6375,1.79979 -8.84375,2.78125 -3.74138,0.87299 -8.12682,1.34377 -13.15625,1.34375 -6.06047,2e-5 -10.71853,-0.86343 -14.09375,-2.21875 -3.50161,-1.55252 -6.1257,-3.51469 -8.28125,-6.03125 -0.009,-0.0108 -0.0226,-0.0204 -0.0312,-0.0312 -2.14298,-2.68788 -3.81723,-5.95002 -5.03125,-10.15625 -0.01,-0.0343 -0.0214,-0.0593 -0.0312,-0.0937 -1.09996,-4.37184 -1.68753,-9.36348 -1.6875,-15 -3e-5,-12.96592 2.84596,-21.41724 7.125,-26.53125 4.44628,-5.13325 10.14303,-7.68742 19.96875,-7.6875 4.11963,9e-5 7.84161,0.38156 11.1875,1.125 a 9.9320444,9.9320444 0 0 0 0.0625,0.0312 c 3.67815,0.78828 6.72096,1.80771 9.09375,2.9375 a 9.9320444,9.9320444 0 0 0 13.875,-6.4375 l 4.8125,-18.1875 a 9.9320444,9.9320444 0 0 0 -5.84375,-11.71875 c -5.5757,-2.26494 -11.41515,-3.93084 -17.46875,-4.96875 -5.91459,-1.01378 -11.85348,-1.53112 -17.78125,-1.53125 -9.93509,1.4e-4 -19.36246,1.88652 -27.90625,5.6875 -0.03,0.0133 -0.0638,0.0178 -0.0937,0.0312 -8.25161,3.60308 -15.47378,8.83732 -21.3125,15.5625 -0.0244,0.0281 -0.0382,0.0657 -0.0625,0.0937 -0.64819,0.73184 -1.22894,1.51915 -1.84375,2.28125 L 365,697.5625 a 9.9320444,9.9320444 0 0 0 -5.84375,-11.75 c -5.5757,-2.26494 -11.41515,-3.93084 -17.46875,-4.96875 -5.92092,-1.01487 -11.88473,-1.53112 -17.8125,-1.53125 z m 2.09375,38.71875 c 4.11963,9e-5 7.80003,0.37927 11.15625,1.125 a 9.9320444,9.9320444 0 0 0 0.0625,0.0312 c 3.67815,0.78828 6.72096,1.80771 9.09375,2.9375 a 9.9320444,9.9320444 0 0 0 7.96875,0.25 c -1.72058,3.21438 -3.28489,6.54484 -4.5625,10.09375 a 9.9320444,9.9320444 0 0 0 -0.0625,0.1875 c -2.99838,8.81881 -4.43751,18.36482 -4.4375,28.5 -10e-6,7.45282 0.76402,14.56521 2.28125,21.3125 -1.72168,0.63764 -3.32294,1.30973 -6.28125,2 -3.69984,0.86329 -8.09035,1.31252 -13.15625,1.3125 -6.08933,2e-5 -10.75124,-0.84585 -14.09375,-2.1875 -3.50161,-1.55252 -6.1257,-3.51469 -8.28125,-6.03125 -0.009,-0.0108 -0.0227,-0.0205 -0.0312,-0.0312 -2.12705,-2.66816 -3.81429,-5.97086 -5.03125,-10.1875 -0.01,-0.0343 -0.0214,-0.0594 -0.0312,-0.0937 -1.09996,-4.37184 -1.68753,-9.36348 -1.6875,-15 -3e-5,-12.98028 2.81641,-21.38802 7.09375,-26.5 4.44549,-5.13199 10.19146,-7.71867 20,-7.71875 z m -178.3125,15.15625 0,73.9375 c -2.32852,-3.6059 -4.57941,-7.20207 -7.15625,-10.84375 -0.0307,-0.0448 -0.063,-0.0802 -0.0937,-0.125 -6.28172,-9.16879 -12.37708,-17.68619 -18.46875,-26.0625 l 25.71875,-36.90625 z m 55.03125,19.71875 c 9.34871,8e-5 15.24427,2.54667 20.28125,8.03125 4.82072,5.24936 7.71866,13.18073 7.71875,25.5 -9e-5,5.46738 -0.54929,10.4614 -1.59375,15.03125 -0.96119,4.05125 -2.40617,7.34867 -4.34375,10.1875 -0.008,0.0114 -0.0234,0.0198 -0.0312,0.0312 -1.81015,2.50294 -4.06551,4.50421 -7.15625,6.125 -0.0218,0.0114 -0.0406,0.0198 -0.0625,0.0312 -2.60401,1.28906 -6.18367,2.12502 -11.125,2.125 -4.68287,2e-5 -8.73856,-0.77267 -12.375,-2.25 -2.01801,-0.8198 -3.66529,-1.62277 -5.0625,-2.375 l 0,-61.84375 c 2.97606,-0.36091 7.64075,-0.59366 13.75,-0.59375 z"
       style="font-size:20.259655px;font-style:normal;font-variant:normal;font-weight:bold;font-stretch:normal;line-height:125%;letter-spacing:0px;word-spacing:0px;fill:#000000;fill-opacity:1;stroke:none;font-family:Ubuntu;-inkscape-font-specification:Ubuntu Bold" />
    <path
       d="m 323.875,689.25 c -8.74006,1.2e-4 -16.69964,1.59262 -23.90625,4.8125 -7.05337,3.06678 -13.03087,7.45178 -17.9375,13.125 -4.90669,5.5201 -8.74002,12.11468 -11.5,19.78125 -2.60668,7.66674 -3.90626,16.08132 -3.90625,25.28125 -10e-6,9.20005 1.2029,17.64588 3.65625,25.3125 2.45332,7.51336 6.15581,14.04252 11.0625,19.5625 5.05997,5.52001 11.19955,9.80834 18.40625,12.875 7.35995,3.06667 15.83994,4.59375 25.5,4.59375 3.06659,0 6.21742,-0.2275 9.4375,-0.6875 3.37325,-0.30667 6.52408,-0.76167 9.4375,-1.375 2.91324,-0.46 5.51241,-1.01167 7.8125,-1.625 2.2999,-0.76666 4.08573,-1.51458 5.3125,-2.28125 l -3,-17.96875 c -2.60676,1.22669 -6.21259,2.39544 -10.8125,3.46875 -4.60008,1.07335 -9.733,1.59377 -15.40625,1.59375 -7.0534,2e-5 -13.03089,-0.9754 -17.9375,-2.96875 -4.90672,-2.14665 -8.96755,-5.13539 -12.1875,-8.96875 -3.06671,-3.8333 -5.37295,-8.4458 -6.90625,-13.8125 -1.38003,-5.36662 -2.06253,-11.2787 -2.0625,-17.71875 -3e-5,-14.41326 3.11955,-25.36158 9.40625,-32.875 6.43995,-7.51323 15.66494,-11.28115 27.625,-11.28125 4.75326,10e-5 9.17242,0.4551 13.3125,1.375 4.29324,0.9201 8.06116,2.15427 11.28125,3.6875 L 355.40625,695 c -4.90676,-1.99321 -10.03967,-3.45488 -15.40625,-4.375 -5.36675,-0.91988 -10.75841,-1.37488 -16.125,-1.375 z m 88.53125,8.875 c -8.74006,1.2e-4 -16.73089,1.62387 -23.9375,4.84375 -7.05337,3.06678 -13.03087,7.42053 -17.9375,13.09375 -4.90669,5.5201 -8.74002,12.11468 -11.5,19.78125 -2.60668,7.66674 -3.90626,16.11257 -3.90625,25.3125 -10e-6,9.20005 1.23415,17.64588 3.6875,25.3125 2.45332,7.51336 6.12456,14.01127 11.03125,19.53125 5.05997,5.52001 11.19955,9.80834 18.40625,12.875 7.35995,3.06667 15.87119,4.625 25.53125,4.625 3.06659,0 6.21742,-0.25875 9.4375,-0.71875 3.37325,-0.30667 6.49283,-0.76167 9.40625,-1.375 2.91324,-0.46 5.54366,-0.98042 7.84375,-1.59375 2.2999,-0.76666 4.05448,-1.54583 5.28125,-2.3125 l -3,-17.9375 c -2.60676,1.22669 -6.21259,2.36419 -10.8125,3.4375 -4.60008,1.07335 -9.733,1.62502 -15.40625,1.625 -7.0534,2e-5 -13.03089,-1.00665 -17.9375,-3 -4.90672,-2.14665 -8.96755,-5.13539 -12.1875,-8.96875 -3.06671,-3.8333 -5.37295,-8.41455 -6.90625,-13.78125 -1.38003,-5.36662 -2.06253,-11.2787 -2.0625,-17.71875 -3e-5,-14.41326 3.1508,-25.39283 9.4375,-32.90625 6.43995,-7.51323 15.63369,-11.2499 27.59375,-11.25 4.75326,10e-5 9.20367,0.4551 13.34375,1.375 4.29324,0.9201 8.06116,2.15427 11.28125,3.6875 l 4.8125,-18.1875 c -4.90676,-1.99321 -10.03967,-3.45488 -15.40625,-4.375 -5.36675,-0.91988 -10.72716,-1.37488 -16.09375,-1.375 z m -368.1875,16.59375 39.5625,56.8125 c -7.360038,9.81339 -14.799197,20.17588 -22.3125,31.0625 C 54.108735,813.3271 47.741658,823.88584 42.375,834.3125 l 22.09375,0 c 1.686639,-3.22 3.765387,-6.89124 6.21875,-11.03125 2.453299,-4.13998 5.052463,-8.3629 7.8125,-12.65625 2.913291,-4.44664 5.902038,-8.80038 8.96875,-13.09375 3.066615,-4.44663 6.055362,-8.60412 8.96875,-12.4375 2.913273,3.83338 5.90202,7.89421 8.96875,12.1875 3.0666,4.29337 6.05534,8.67836 8.96875,13.125 2.91325,4.29335 5.60909,8.51627 8.0625,12.65625 2.45325,4.14001 4.50075,7.87667 6.1875,11.25 l 23.46875,0 c -5.36677,-10.57999 -11.96135,-21.36623 -19.78125,-32.40625 -7.66675,-11.19329 -15.17133,-21.78328 -22.53125,-31.75 l 38.625,-55.4375 -22.75,0 -28.75,41.875 -28.53125,-41.875 -24.15625,0 z m 158.6875,9.15625 c -9.96672,1.2e-4 -18.77088,0.77929 -26.4375,2.3125 -7.51336,1.38012 -13.81502,2.6797 -18.875,3.90625 l 0,158.46875 21.40625,0 0,-47.84375 c 2.60662,1.68667 6.50537,3.44125 11.71875,5.28125 5.36661,1.84 11.50619,2.75 18.40625,2.75 8.58659,0 16.18783,-1.52708 22.78125,-4.59375 6.74657,-3.06666 12.39989,-7.35499 17,-12.875 4.59989,-5.51998 8.04363,-12.11456 10.34375,-19.78125 2.45321,-7.66662 3.68738,-16.01578 3.6875,-25.0625 -1.2e-4,-9.65993 -1.46179,-18.33326 -4.375,-26 -2.76012,-7.81991 -6.72428,-14.41448 -11.9375,-19.78125 -5.21344,-5.36656 -11.5151,-9.4928 -18.875,-12.40625 -7.36008,-2.91321 -15.64382,-4.37488 -24.84375,-4.375 z m -0.21875,19.09375 c 11.49993,10e-5 20.69367,3.73677 27.59375,11.25 6.8999,7.51342 10.34365,18.26549 10.34375,32.21875 -1e-4,6.13339 -0.61718,11.88338 -1.84375,17.25 -1.22677,5.21337 -3.20885,9.79462 -5.96875,13.78125 -2.76009,3.83336 -6.36592,6.91877 -10.8125,9.21875 -4.29341,2.14668 -9.49174,3.21877 -15.625,3.21875 -5.82673,2e-5 -11.21839,-1.00665 -16.125,-3 -4.90671,-1.99331 -8.64338,-4.04081 -11.25,-6.1875 L 179,745.25 c 2.14662,-0.61323 4.97329,-1.13365 8.5,-1.59375 3.67995,-0.4599 8.74744,-0.6874 15.1875,-0.6875 z"
       style="font-size:20.259655px;font-style:normal;font-variant:normal;font-weight:bold;font-stretch:normal;line-height:125%;letter-spacing:0px;word-spacing:0px;fill:#bcbcbc;fill-opacity:1;stroke:none;font-family:Ubuntu;-inkscape-font-specification:Ubuntu Bold" />
    <text
       x="38.708046"
       y="834.32544"
       style="font-size:22.18293381px;font-style:normal;font-variant:normal;font-weight:bold;font-stretch:normal;line-height:125%;letter-spacing:0px;word-spacing:0px;fill:#ffffff;fill-opacity:1;stroke:#ffffff;stroke-width:2;stroke-miterlimit:4;stroke-opacity:1;stroke-dasharray:none;font-family:Ubuntu;-inkscape-font-specification:Ubuntu Bold"><tspan
         x="38.708046"
         y="834.32544"
         dx="0 -17.199272 -19.982996 -18.398958"
         dy="0 11.678452 -34.173401 8.8947268"
         id="tspan3157"
         style="font-size:230px;font-weight:normal;fill:#ffffff;fill-opacity:1;stroke:#ffffff;stroke-width:2;stroke-miterlimit:4;stroke-opacity:1;stroke-dasharray:none;-inkscape-font-specification:Ubuntu">xpcc</tspan></text>
  </g>
  </g>
</svg>
