<?xml version="1.0" encoding="UTF-8" standalone="no"?>
<svg xmlns:rdf="http://www.w3.org/1999/02/22-rdf-syntax-ns#" xmlns="http://www.w3.org/2000/svg" height="550" width="550" version="1.2" xmlns:cc="http://creativecommons.org/ns#" xmlns:dc="http://purl.org/dc/elements/1.1/">
 <metadata>
  <rdf:RDF>
   <cc:Work rdf:about="">
    <dc:format>image/svg+xml</dc:format>
    <dc:type rdf:resource="http://purl.org/dc/dcmitype/StillImage"/>
    <dc:title/>
   </cc:Work>
  </rdf:RDF>
 </metadata>
 <path fill="#bcbcbc" d="m348.88,111.89c-8.7401,0.00012-16.7,1.5926-23.906,4.8125-7.0534,3.0668-13.031,7.4518-17.938,13.125-4.9067,5.5201-8.74,12.115-11.5,19.781-2.6067,7.6667-3.9063,16.081-3.9062,25.281-0.00001,9.2,1.2029,17.646,3.6562,25.312,2.4533,7.5134,6.1558,14.043,11.062,19.562,5.06,5.52,11.2,9.8083,18.406,12.875,7.36,3.0667,15.84,4.5938,25.5,4.5938,3.0666,0,6.2174-0.2275,9.4375-0.6875,3.3732-0.30667,6.5241-0.76167,9.4375-1.375,2.9132-0.46,5.5124-1.0117,7.8125-1.625,2.2999-0.76666,4.0857-1.5146,5.3125-2.2812l-3-17.969c-2.6068,1.2267-6.2126,2.3954-10.812,3.4688-4.6001,1.0734-9.733,1.5938-15.406,1.5938-7.0534,0.00002-13.031-0.9754-17.938-2.9688-4.9067-2.1466-8.9676-5.1354-12.188-8.9688-3.0667-3.8333-5.373-8.4458-6.9062-13.812-1.38-5.3666-2.0625-11.279-2.0625-17.719-0.00003-14.413,3.1196-25.362,9.4062-32.875,6.44-7.5132,15.665-11.281,27.625-11.281,4.7533,0.0001,9.1724,0.4551,13.312,1.375,4.2932,0.9201,8.0612,2.1543,11.281,3.6875l4.8438-18.156c-4.9068-1.9932-10.04-3.4549-15.406-4.375-5.3668-0.91988-10.758-1.3749-16.125-1.375zm88.531,8.875c-8.7401,0.00012-16.731,1.6239-23.938,4.8438-7.0534,3.0668-13.031,7.4205-17.938,13.094-4.9067,5.5201-8.74,12.115-11.5,19.781-2.6067,7.6667-3.9063,16.113-3.9062,25.312-0.00001,9.2,1.2342,17.646,3.6875,25.312,2.4533,7.5134,6.1246,14.011,11.031,19.531,5.06,5.52,11.2,9.8083,18.406,12.875,7.36,3.0667,15.871,4.625,25.531,4.625,3.0666,0,6.2174-0.25875,9.4375-0.71875,3.3732-0.30667,6.4928-0.76167,9.4062-1.375,2.9132-0.46,5.5437-0.98042,7.8438-1.5938,2.2999-0.76666,4.0545-1.5458,5.2812-2.3125l-3-17.938c-2.6068,1.2267-6.2126,2.3642-10.812,3.4375-4.6001,1.0734-9.733,1.625-15.406,1.625-7.0534,0.00002-13.031-1.0066-17.938-3-4.9067-2.1466-8.9676-5.1354-12.188-8.9688-3.0667-3.8333-5.373-8.4146-6.9062-13.781-1.38-5.3666-2.0625-11.279-2.0625-17.719-0.00003-14.413,3.1508-25.393,9.4375-32.906,6.44-7.5132,15.634-11.25,27.594-11.25,4.7533,0.0001,9.2037,0.4551,13.344,1.375,4.2932,0.9201,8.0612,2.1543,11.281,3.6875l4.8125-18.188c-4.9068-1.9932-10.04-3.4549-15.406-4.375-5.3668-0.91988-10.727-1.3749-16.094-1.375zm-368.19,16.594,39.562,56.812c-7.36,9.8134-14.799,20.176-22.312,31.062-7.36,10.733-13.727,21.292-19.094,31.719h22.094c1.6866-3.22,3.7654-6.8912,6.2188-11.031,2.4533-4.14,5.0525-8.3629,7.8125-12.656,2.9133-4.4466,5.902-8.8004,8.9688-13.094,3.0666-4.4466,6.0554-8.6041,8.9688-12.438,2.9133,3.8334,5.902,7.8942,8.9688,12.188,3.0666,4.2934,6.0553,8.6784,8.9688,13.125,2.9132,4.2934,5.6091,8.5163,8.0625,12.656,2.4532,4.14,4.5008,7.8767,6.1875,11.25h23.469c-5.3668-10.58-11.961-21.366-19.781-32.406-7.6668-11.193-15.171-21.783-22.531-31.75l38.625-55.438h-22.75l-28.75,41.875-28.531-41.875h-24.156zm158.69,9.1562c-9.9667,0.00012-18.771,0.77929-26.438,2.3125-7.5134,1.3801-13.815,2.6797-18.875,3.9062v158.47h21.406v-47.844c2.6066,1.6867,6.5054,3.4412,11.719,5.2812,5.3666,1.84,11.506,2.75,18.406,2.75,8.5866,0,16.188-1.5271,22.781-4.5938,6.7466-3.0667,12.4-7.355,17-12.875,4.5999-5.52,8.0436-12.115,10.344-19.781,2.4532-7.6666,3.6874-16.016,3.6875-25.062-0.00012-9.6599-1.4618-18.333-4.375-26-2.7601-7.8199-6.7243-14.414-11.938-19.781-5.2134-5.3666-11.515-9.4928-18.875-12.406-7.3601-2.9132-15.644-4.3749-24.844-4.375zm-0.21875,19.094c11.5,0.0001,20.694,3.7368,27.594,11.25,6.8999,7.5134,10.344,18.265,10.344,32.219-0.0001,6.1334-0.61718,11.883-1.8438,17.25-1.2268,5.2134-3.2088,9.7946-5.9688,13.781-2.7601,3.8334-6.3659,6.9188-10.812,9.2188-4.2934,2.1467-9.4917,3.2188-15.625,3.2188-5.8267,0.00002-11.218-1.0066-16.125-3-4.9067-1.9933-8.6434-4.0408-11.25-6.1875v-75.469c2.1466-0.61323,4.9733-1.1336,8.5-1.5938,3.68-0.4599,8.7474-0.6874,15.188-0.6875z"/>
 <g transform="translate(25,75)">
  <path d="m334.17,152.62a233.92,233.06,0,1,1,-467.83,0,233.92,233.06,0,1,1,467.83,0z" fill-rule="nonzero" transform="matrix(0.77048874,0,0,0.75335793,167.04434,87.876513)" fill="#000"/>
 </g>
 <path fill="#000" d="m348.88,101.95c-9.9115,0.00014-19.319,1.8502-27.875,5.6562-0.0301,0.0134-0.0637,0.0178-0.0937,0.0312-8.2739,3.613-15.485,8.8816-21.312,15.594-0.0243,0.028-0.0383,0.0657-0.0625,0.0937-5.7734,6.5184-10.219,14.227-13.344,22.906a9.932,9.932,0,0,0,-0.0625,0.1875c-1.5818,4.6525-2.7064,9.4941-3.4375,14.531-1.2431-1.5792-2.5389-3.1227-3.9375-4.5625-6.2276-6.4105-13.804-11.338-22.344-14.719-8.6741-3.4333-18.248-5.0936-28.5-5.0938-10.423,0.00013-19.791,0.7959-28.219,2.4688-0.0613,0.0113-0.0951,0.02-0.15625,0.0312-6.9648,1.2814-12.743,2.4997-17.781,3.6875a9.932,9.932,0,0,0,-8.3438,-15.344h-22.75a9.932,9.932,0,0,0,-8.1875,4.3125l-20.531,29.906-20.344-29.875a9.932,9.932,0,0,0,-8.235,-4.36h-24.156a9.932,9.932,0,0,0,-8.1562,15.625l35.531,51.031c-6.0698,8.2293-12.154,16.577-18.312,25.5a9.932,9.932,0,0,0,0,0.0312c-7.5672,11.036-14.169,21.97-19.75,32.812a9.932,9.932,0,0,0,8.8438,14.469h22.094a9.932,9.932,0,0,0,8.8125,-5.3438c1.57-2.9974,3.5426-6.5211,5.9375-10.562,2.3834-4.0221,4.9163-8.1147,7.5938-12.281,0.0129-0.0201,0.0183-0.0424,0.0312-0.0625,2.8235-4.3077,5.7373-8.5135,8.7188-12.688a9.932,9.932,0,0,0,0.0937,-0.15625c0.29369-0.42585,0.55188-0.76763,0.84375-1.1875,0.27528,0.38333,0.53582,0.70641,0.8125,1.0938,2.9816,4.1743,5.9027,8.4354,8.75,12.781a9.932,9.932,0,0,0,0.0937,0.125c2.8127,4.1451,5.4132,8.2131,7.75,12.156,2.3526,3.9702,4.2828,7.5032,5.8438,10.625a9.932,9.932,0,0,0,8.875,5.5h19.031v44.312a9.932,9.932,0,0,0,9.9375,9.9375h21.406a9.932,9.932,0,0,0,9.9375,-9.9375v-32.812c6.2364,1.9506,12.953,2.9375,20.188,2.9375,9.7388,0,18.825-1.7543,26.906-5.5,0.021-0.01,0.0415-0.0215,0.0625-0.0312,7.9919-3.6439,14.91-8.8982,20.438-15.531,5.4893-6.5873,9.521-14.392,12.156-23.094h0.0312c0.0191-0.0596,0.0123-0.1278,0.0312-0.1875,1.3537-4.2648,2.3816-8.6843,3.0625-13.25,0.69765,0.8773,1.3489,1.787,2.0938,2.625a9.932,9.932,0,0,0,0.125,0.125c6.0327,6.5811,13.438,11.704,21.844,15.281a9.932,9.932,0,0,0,0.0625,0.0312c8.7794,3.6581,18.606,5.375,29.312,5.375,3.3938,0,6.8524-0.27351,10.344-0.75,0.16865-0.023,0.33117-0.007,0.5-0.0312v-0.0312c3.3466-0.32005,6.5302-0.78046,9.5938-1.4062v0.0312c0.1492-0.0236,0.25829-0.0697,0.40625-0.0937,0.0217-0.004,0.0408,0.004,0.0625,0,3.0224-0.49283,5.8181-1.0765,8.3438-1.75a9.932,9.932,0,0,0,0.5625,-0.1875c2.675-0.89171,4.9991-1.7574,7.4375-3.2812a9.932,9.932,0,0,0,2.3751,-2.0314c5.5827,5.4642,12.124,9.8612,19.5,13a9.932,9.932,0,0,0,0.0625,0.0312c8.7665,3.6528,18.616,5.4062,29.344,5.4062,3.4582,0,6.9067-0.30912,10.344-0.78125,0.16598-0.0228,0.33408-0.008,0.5-0.0312v-0.0312c3.3482-0.32061,6.5132-0.78294,9.5625-1.4062v0.0312c0.15579-0.0246,0.28271-0.0688,0.4375-0.0937,0.0106-0.002,0.0207,0.002,0.0312,0,2.9566-0.47794,5.7516-1.0192,8.375-1.7188a9.932,9.932,0,0,0,0.5625,-0.1875c2.7774-0.92584,5.135-1.8931,7.4062-3.3125a9.932,9.932,0,0,0,4.5312,-10.031l-3-17.938a9.932,9.932,0,0,0,-14,-7.375c-1.5544,0.73147-4.6375,1.7998-8.8438,2.7812-3.7414,0.87299-8.1268,1.3438-13.156,1.3438-6.0605,0.00002-10.719-0.86343-14.094-2.2188-3.5016-1.5525-6.1257-3.5147-8.2812-6.0312-0.009-0.0108-0.0226-0.0204-0.0312-0.0312-2.143-2.6879-3.8172-5.95-5.0312-10.156-0.01-0.0343-0.0214-0.0593-0.0312-0.0937-1.1-4.3718-1.6875-9.3635-1.6875-15-0.00003-12.966,2.846-21.417,7.125-26.531,4.4463-5.1332,10.143-7.6874,19.969-7.6875,4.1196,0.00009,7.8416,0.38156,11.188,1.125a9.932,9.932,0,0,0,0.0625,0.0312c3.6782,0.78828,6.721,1.8077,9.0938,2.9375a9.932,9.932,0,0,0,13.875,-6.4375l4.8125-18.188a9.932,9.932,0,0,0,-5.8438,-11.719c-5.5757-2.2649-11.415-3.9308-17.469-4.9688-5.9146-1.0138-11.853-1.5311-17.781-1.5312-9.9351,0.00014-19.362,1.8865-27.906,5.6875-0.03,0.0133-0.0638,0.0178-0.0937,0.0312-8.2516,3.6031-15.474,8.8373-21.312,15.562-0.0244,0.0281-0.0382,0.0657-0.0625,0.0937-0.64819,0.73184-1.2289,1.5192-1.8438,2.2812l3.83-14.27a9.932,9.932,0,0,0,-5.8438,-11.75c-5.5757-2.2649-11.415-3.9308-17.469-4.9688-5.9209-1.0149-11.885-1.5311-17.812-1.5312zm2.0938,38.719c4.1196,0.00009,7.8,0.37927,11.156,1.125a9.932,9.932,0,0,0,0.0625,0.0312c3.6782,0.78828,6.721,1.8077,9.0938,2.9375a9.932,9.932,0,0,0,7.9688,0.25c-1.7206,3.2144-3.2849,6.5448-4.5625,10.094a9.932,9.932,0,0,0,-0.0625,0.1875c-2.9984,8.8188-4.4375,18.365-4.4375,28.5-0.00001,7.4528,0.76402,14.565,2.2812,21.312-1.7217,0.63764-3.3229,1.3097-6.2812,2-3.6998,0.86329-8.0904,1.3125-13.156,1.3125-6.0893,0.00002-10.751-0.84585-14.094-2.1875-3.5016-1.5525-6.1257-3.5147-8.2812-6.0312-0.009-0.0108-0.0227-0.0205-0.0312-0.0312-2.127-2.6682-3.8143-5.9709-5.0312-10.188-0.01-0.0343-0.0214-0.0594-0.0312-0.0937-1.1-4.3718-1.6875-9.3635-1.6875-15-0.00003-12.98,2.8164-21.388,7.0938-26.5,4.4455-5.132,10.191-7.7187,20-7.7188zm-178.31,15.156,0,73.938c-2.3285-3.6059-4.5794-7.2021-7.1562-10.844-0.0307-0.0448-0.063-0.0802-0.0937-0.125-6.2817-9.1688-12.377-17.686-18.469-26.062l25.719-36.906zm55.031,19.719c9.3487,0.00008,15.244,2.5467,20.281,8.0312,4.8207,5.2494,7.7187,13.181,7.7188,25.5-0.00009,5.4674-0.54929,10.461-1.5938,15.031-0.96119,4.0512-2.4062,7.3487-4.3438,10.188-0.008,0.0114-0.0234,0.0198-0.0312,0.0312-1.8102,2.5029-4.0655,4.5042-7.1562,6.125-0.0218,0.0114-0.0406,0.0198-0.0625,0.0312-2.604,1.2891-6.1837,2.125-11.125,2.125-4.6829,0.00002-8.7386-0.77267-12.375-2.25-2.018-0.8198-3.6653-1.6228-5.0625-2.375v-61.844c2.9761-0.36091,7.6408-0.59366,13.75-0.59375z"/>
 <g style="letter-spacing:0px;word-spacing:0px;" font-family="Ubuntu" font-weight="bold" font-size="22.18293381px" font-style="normal" stroke="#FFF" font-stretch="normal" stroke-miterlimit="4" line-height="125%" font-variant="normal" stroke-width="2" fill="#FFF">
  <path d="m153.64,256.96c-1.6868-3.3733-3.7568-7.13-6.21-11.27-2.4534-4.14-5.1368-8.3566-8.05-12.65-2.9134-4.4466-5.9034-8.8166-8.97-13.11-3.0667-4.2933-6.0567-8.3566-8.97-12.19-2.9134,3.8334-5.9034,7.9734-8.97,12.42-3.0667,4.2934-6.0567,8.6634-8.97,13.11-2.76,4.2934-5.3667,8.51-7.82,12.65-2.4534,4.14-4.5234,7.82-6.21,11.04h-22.08c5.3667-10.427,11.73-21.007,19.09-31.74,7.5133-10.887,14.95-21.237,22.31-31.05l-39.56-56.81h24.15l28.52,41.86,28.75-41.86h22.77l-38.64,55.43c7.3599,9.9667,14.873,20.547,22.54,31.74,7.8199,11.04,14.413,21.85,19.78,32.43h-23.46"/>
  <path d="m265.63,209.07c-0.00011-13.953-3.4501-24.687-10.35-32.2-6.9001-7.5132-16.1-11.27-27.6-11.27-6.4401,0.0001-11.5,0.2301-15.18,0.69-3.5267,0.4601-6.3634,0.99677-8.51,1.61v75.44c2.6066,2.1467,6.3633,4.2167,11.27,6.21,4.9066,1.9934,10.273,2.99,16.1,2.99,6.1333,0.00001,11.347-1.0733,15.64-3.22,4.4466-2.3,8.0499-5.3666,10.81-9.2,2.7599-3.9866,4.7532-8.5866,5.98-13.8,1.2266-5.3666,1.8399-11.117,1.84-17.25m22.31,0c-0.00013,9.0467-1.2268,17.403-3.68,25.07-2.3001,7.6667-5.7501,14.26-10.35,19.78-4.6001,5.52-10.273,9.8133-17.02,12.88-6.5934,3.0667-14.183,4.6-22.77,4.6-6.9001,0-13.033-0.92-18.4-2.76-5.2134-1.84-9.1234-3.6033-11.73-5.29v47.84h-21.39v-158.47c5.06-1.2266,11.347-2.5299,18.86-3.91,7.6666-1.5332,16.483-2.2999,26.45-2.3,9.1999,0.00012,17.48,1.4568,24.84,4.37,7.3599,2.9134,13.647,7.0534,18.86,12.42,5.2132,5.3668,9.1999,11.96,11.96,19.78,2.9132,7.6667,4.3699,16.33,4.37,25.99"/>
  <path d="m350.27,237.23c-9.6601-0.00001-18.17-1.5333-25.53-4.6-7.2067-3.0667-13.34-7.36-18.4-12.88-4.9067-5.52-8.5867-12.037-11.04-19.55-2.4533-7.6666-3.68-16.1-3.68-25.3-0.00001-9.1999,1.3033-17.633,3.91-25.3,2.76-7.6666,6.5933-14.26,11.5-19.78,4.9066-5.6732,10.887-10.043,17.94-13.11,7.2066-3.2199,15.18-4.8299,23.92-4.83,5.3666,0.00012,10.733,0.46012,16.1,1.38,5.3666,0.92012,10.503,2.3768,15.41,4.37l-4.83,18.17c-3.2201-1.5332-6.9768-2.7599-11.27-3.68-4.1401-0.9199-8.5867-1.3799-13.34-1.38-11.96,0.0001-21.16,3.7568-27.6,11.27-6.2867,7.5134-9.43,18.477-9.43,32.89-0.00003,6.44,0.68997,12.343,2.07,17.71,1.5333,5.3667,3.8333,9.9667,6.9,13.8,3.22,3.8334,7.2833,6.8234,12.19,8.97,4.9066,1.9934,10.887,2.99,17.94,2.99,5.6733,0.00001,10.81-0.53665,15.41-1.61,4.5999-1.0733,8.2032-2.2233,10.81-3.45l2.99,17.94c-1.2268,0.76667-2.9901,1.5333-5.29,2.3-2.3001,0.61333-4.9068,1.15-7.82,1.61-2.9134,0.61333-6.0568,1.0733-9.43,1.38-3.2201,0.45999-6.3634,0.68999-9.43,0.69"/>
  <path d="m438.78,246.12c-9.6601,0-18.17-1.5333-25.53-4.6-7.2067-3.0667-13.34-7.36-18.4-12.88-4.9067-5.52-8.5867-12.037-11.04-19.55-2.4534-7.6666-3.68-16.1-3.68-25.3-0.00002-9.1999,1.3033-17.633,3.91-25.3,2.76-7.6666,6.5933-14.26,11.5-19.78,4.9066-5.6732,10.887-10.043,17.94-13.11,7.2066-3.2199,15.18-4.8299,23.92-4.83,5.3666,0.00013,10.733,0.46013,16.1,1.38,5.3666,0.92012,10.503,2.3768,15.41,4.37l-4.83,18.17c-3.2201-1.5332-6.9768-2.7599-11.27-3.68-4.1401-0.91989-8.5868-1.3799-13.34-1.38-11.96,0.00011-21.16,3.7568-27.6,11.27-6.2867,7.5134-9.43,18.477-9.43,32.89-0.00004,6.4401,0.68996,12.343,2.07,17.71,1.5333,5.3667,3.8333,9.9667,6.9,13.8,3.22,3.8334,7.2833,6.8234,12.19,8.97,4.9066,1.9934,10.887,2.99,17.94,2.99,5.6732,0.00002,10.81-0.53665,15.41-1.61,4.5999-1.0733,8.2032-2.2233,10.81-3.45l2.99,17.94c-1.2268,0.76667-2.9901,1.5333-5.29,2.3-2.3001,0.61334-4.9068,1.15-7.82,1.61-2.9134,0.61334-6.0568,1.0733-9.43,1.38-3.2201,0.46-6.3634,0.69-9.43,0.69"/>
 </g>
</svg>
